/* XPM */
static const char * icon_xpm[] = {
/* columns rows colors chars-per-pixel */
"32 32 192 2 ",
"   c #080808",
".  c #151515",
"X  c #1C1C1C",
"o  c #242424",
"O  c #2B2B2B",
"+  c #343434",
"@  c #3B3B3B",
"#  c #450500",
"$  c #5C0200",
"%  c #510900",
"&  c #680006",
"*  c #6A0108",
"=  c #711906",
"-  c #751712",
";  c #771818",
":  c #782418",
">  c #581C26",
",  c #432D34",
"<  c #493B3D",
"1  c #583638",
"2  c #672721",
"3  c #69322A",
"4  c #603032",
"5  c #713D39",
"6  c #6D3E40",
"7  c #444444",
"8  c #46474D",
"9  c #4B4B4B",
"0  c #58434B",
"q  c #4E4E51",
"w  c #545454",
"e  c #565759",
"r  c #555B5D",
"t  c #5B5B5B",
"y  c #634345",
"u  c #664848",
"i  c #7C4E50",
"p  c #5E5F60",
"a  c #5D6262",
"s  c #636363",
"d  c #616568",
"f  c #656B6E",
"g  c #6D6C6C",
"h  c #6D7172",
"j  c #737373",
"k  c #767979",
"l  c #7B7B7B",
"z  c #8B0C00",
"x  c #831000",
"c  c #8F1700",
"v  c #811800",
"b  c #8B1D05",
"n  c #961504",
"m  c #9C1602",
"M  c #951B00",
"N  c #8A0A10",
"B  c #991D13",
"V  c #A70F00",
"C  c #B00F00",
"Z  c #952609",
"A  c #913500",
"S  c #88341F",
"D  c #A02B02",
"F  c #A93E03",
"G  c #B23116",
"H  c #901D21",
"J  c #9D1F22",
"K  c #8E3E2C",
"L  c #8F3A32",
"P  c #AD2B28",
"I  c #B43428",
"U  c #B93E2F",
"Y  c #D12717",
"T  c #964304",
"R  c #AD4704",
"E  c #BB4D08",
"W  c #B25800",
"Q  c #BB5F13",
"!  c #B76507",
"~  c #B86109",
"^  c #9B413D",
"/  c #9D4A38",
"(  c #BA5B23",
")  c #A45038",
"_  c #BF7D35",
"`  c #D8500B",
"'  c #D74C15",
"]  c #CA521A",
"[  c #D76D05",
"{  c #CE7C1F",
"}  c #DC7011",
"|  c #DF7E10",
" . c #E1700E",
".. c #D55F3A",
"X. c #C7632D",
"o. c #D17A3E",
"O. c #E57928",
"+. c #ED7639",
"@. c #854942",
"#. c #B9704D",
"$. c #BC6852",
"%. c #886568",
"&. c #8F6C6D",
"*. c #BF7E66",
"=. c #D36452",
"-. c #C97752",
";. c #C37260",
":. c #CC7D6E",
">. c #7D807F",
",. c #E28112",
"<. c #E08A15",
"1. c #FDAB1F",
"2. c #E29230",
"3. c #EBA722",
"4. c #FFAB25",
"5. c #EBB329",
"6. c #FFB52E",
"7. c #F1BA2B",
"8. c #F7A234",
"9. c #F2BE34",
"0. c #FBBD38",
"q. c #FFC737",
"w. c #FFCC36",
"e. c #FFCE3A",
"r. c #C88E5C",
"t. c #C79257",
"y. c #EE915D",
"u. c #E0B95A",
"i. c #CD8266",
"p. c #C08F68",
"a. c #DD866A",
"s. c #C38A70",
"d. c #F7B06E",
"f. c #E3A176",
"g. c #EECD4E",
"h. c #FFC741",
"j. c #FFD644",
"k. c #FFD54D",
"l. c #FFDE52",
"z. c #FFDE5B",
"x. c #FCE74C",
"c. c #FFEA49",
"v. c #FFE652",
"b. c #E8C864",
"n. c #FDDD6E",
"m. c #FFDD70",
"M. c #FFEE6C",
"N. c #FFEE74",
"B. c #FFF077",
"V. c #FFFC77",
"C. c #FFF479",
"Z. c #FFFF7D",
"A. c #7F8586",
"S. c #838484",
"D. c #878B8B",
"F. c #8D8D8D",
"G. c #939393",
"H. c #9A9C9C",
"J. c #B78994",
"K. c #AD9196",
"L. c #9BA2A7",
"P. c #A2A3A3",
"I. c #A4A8A9",
"U. c #AAAAAA",
"Y. c #B4B4B4",
"T. c #DC9E95",
"R. c #EAAE88",
"E. c #ECB382",
"W. c #F2B685",
"Q. c #CDB0B4",
"!. c #E9CA8C",
"~. c #F8D085",
"^. c #E3C391",
"/. c #FCCE90",
"(. c #FCDC97",
"). c #FCED87",
"_. c #FFF486",
"`. c #FFFC86",
"'. c #FFF18C",
"]. c #FFE395",
"[. c #FFED92",
"{. c #FFE59B",
"}. c #FFED99",
"|. c #FFF090",
" X c #FFFA96",
".X c #FFFF99",
"XX c #C7BEC2",
"oX c #BDC1C4",
"OX c #C0C7C7",
"+X c #D1C3C7",
"@X c #FFFFFF",
"#X c None",
/* pixels */
"#X#X#X#X#X#X#X#X#X#X#X#X#X#X#X#X#X#X#X#X#X#X#X#X#X#X#X#X#X#X#X#X",
"#X#X#X#X#X#X#X#X#X#X#X#X#X#X#X#X#X#X#X#X#X#X#X#X#X#X#X#X#X#X#X#X",
"#X#X#X#X#X#X#X#X#X#X#X#X#X#X#X#X#X#X#X#X#X#X#X#X#X#X#X#X#X#X#X#X",
"#X#X#X#X#X#X#X#X#X#X#X#X#X#X#X#X#X#X#X#X#X#X#X#X#X#X#X#X#X#X#X#X",
"#X#X#X#X#X#X#X#X#X#X#X#X#X#X#X.   #X#X#X#X#X#X#X#X#X#X#X#X#X#X#X",
"#X#X#X#X#X#X#X#X#X#X#X#X#X#X9 P.F.o #X#X#X#X#X#X#X#X#X#X#X#X#X#X",
"#X#X#X#X#X#X#X#X#X#X#X#XX >.Y.H.P.U.t #X#X#X#X#X#X#X#X#X#X#X#X#X",
"#X#X#X#X#X#X#X#X#X#X#X9 P.P.>.k l D.U.S.O #X#X#X#X#X#X#X#X#X#X#X",
"#X#X#X#X#X#X#X#X#Xo j P.S.g j j j g j G.K.w #X#X#X#X#X#X#X#X#X#X",
"#X#X#X#X#X#X#X#X9 G.F.s t g g g g g s p h H.>.O #X#X#X#X#X#X#X#X",
"#X#X#X#X#X#Xo g G.g w e t s s s p p a t r e >.F.w #X#X#X#X#X#X#X",
"#X#X#X#X#X9 D.l 9 7 9 w w t t t p p t t t w 7 e S.j + #X#X#X#X#X",
"#X#X#Xo s l e + @ 7 7 9 q w t t t t t t q 7 @ + @ s l q #X#X#X#X",
"#X#X7 F.l 9 o O + @ < 7 w t t w t e w 9 7 @ @ + o O s A.e . #X#X",
"#X#Xs @XoX>.e + O @ 9 w w w e t w 7 @ @ @ @ + O 7 g j a t . #X#X",
"#X#Xr T.:.+XP.g 7 O 9 q w w w 7 @ @ @ @ + O O e l h y ^ u . #X#X",
"#X#XN 2.g.;.Q.OXS.t + + 9 7 @ + + + + O O @ j l a 6 t.x.( #X#X#X",
"#X#X#XE.V.{./ J.OXH.g 7 o o O O O O o O t l f 0 > p..X`.$.#X#X#X",
"#X#X#Xa.B.,.V { #.J.U.l t O X o o X @ j j e 4 _ Q b 7.[.L #X#X#X",
"#X#X#X=._.[ ) V.).s.&.L.D.g @ . X w k s 8 5 ^.Z.n.m 5.].; #X#X#X",
"#X#XY ~.N.| J {.z.o.- ) %.A.l e s j 9 3 K : u.M.R.z 9.'.y.#X#X#X",
"#X#X#XO.q.R & /.e.m X.v.t.i g j a < @.b.c.B W M.i.$ <.h.] #X#X#X",
"#X#X#X#Xm #XI (.k.M -.'. X-.1 a 7 2 !.Z.[.H ! B.f.#X#Xc #X#X#X#X",
"#X#X#X#X#X#X+.N.w.x @.|.4.= q s w , T e./.& ~ x.m.G #X#X#X#X#X#X",
"#X#X#X#X#X#X#X` E #XP }.4.# #X7 + #XA v.W.#Xx } D #X#X#X#X#X#X#X",
"#X#X#X#X#X#X#X#X#X#Xd.'.6.% #X#X#X#XF l.[...#X#X#X#X#X#X#X#X#X#X",
"#X#X#X#X#X#X#X#X#X#X' 0. .#X#X#X#X#XM 3.8.Z #X#X#X#X#X#X#X#X#X#X",
"#X#X#X#X#X#X#X#X#X#X#XC #X#X#X#X#X#X#XV $ #X#X#X#X#X#X#X#X#X#X#X",
"#X#X#X#X#X#X#X#X#X#X#X#X#X#X#X#X#X#X#X#X#X#X#X#X#X#X#X#X#X#X#X#X",
"#X#X#X#X#X#X#X#X#X#X#X#X#X#X#X#X#X#X#X#X#X#X#X#X#X#X#X#X#X#X#X#X",
"#X#X#X#X#X#X#X#X#X#X#X#X#X#X#X#X#X#X#X#X#X#X#X#X#X#X#X#X#X#X#X#X",
"#X#X#X#X#X#X#X#X#X#X#X#X#X#X#X#X#X#X#X#X#X#X#X#X#X#X#X#X#X#X#X#X"
};
